{
  "accessors": [
    {
      "bufferView": 2,
      "componentType": 5126,
      "count": 572,
      "max": [
        3.0789999961853027,
        113.5740966796875,
        11.225600242614746
      ],
      "min": [
        -3.08240008354187,
        102.97489929199219,
        -24.454999923706055
      ],
      "type": "VEC3"
    },
    {
      "bufferView": 2,
      "byteOffset": 6864,
      "componentType": 5126,
      "count": 572,
      "max": [
        1.0,
        1.0,
        1.0
      ],
      "min": [
        -0.9687082767486572,
        -1.0,
        -1.0
      ],
      "type": "VEC3"
    },
    {
      "bufferView": 1,
      "componentType": 5126,
      "count": 572,
      "max": [
        0.9916999936103821,
        -0.00570000009611249
      ],
      "min": [
        0.002099999925121665,
        -0.9926999807357788
      ],
      "type": "VEC2"
    },
    {
      "bufferView": 0,
      "componentType": 5125,
      "count": 2232,
      "type": "SCALAR"
    },
    {
      "bufferView": 2,
      "byteOffset": 13728,
      "componentType": 5126,
      "count": 6813,
      "max": [
        -8.140700340270996,
        110.66529846191406,
        40.035301208496094
      ],
      "min": [
        -56.743499755859375,
        97.24520111083984,
        -25.056800842285156
      ],
      "type": "VEC3"
    },
    {
      "bufferView": 2,
      "byteOffset": 95484,
      "componentType": 5126,
      "count": 6813,
      "max": [
        1.0,
        0.9995593428611755,
        1.0
      ],
      "min": [
        -0.9994662404060364,
        -0.9998194575309753,
        -1.0
      ],
      "type": "VEC3"
    },
    {
      "bufferView": 3,
      "componentType": 5126,
      "count": 6813,
      "max": [
        0.9999995827674866,
        0.9999808669090271,
        0.9994750022888184,
        1.0
      ],
      "min": [
        -0.9997205138206482,
        -1.0,
        -0.9998194575309753,
        -1.0
      ],
      "type": "VEC4"
    },
    {
      "bufferView": 1,
      "byteOffset": 4576,
      "componentType": 5126,
      "count": 6813,
      "max": [
        1.9931999444961548,
        1.1065000295639038
      ],
      "min": [
        -0.8109999895095825,
        -0.9970999956130981
      ],
      "type": "VEC2"
    },
    {
      "bufferView": 0,
      "byteOffset": 8928,
      "componentType": 5125,
      "count": 32361,
      "type": "SCALAR"
    },
    {
      "bufferView": 2,
      "byteOffset": 177240,
      "componentType": 5126,
      "count": 3843,
      "max": [
        -5.223700046539307,
        109.66429901123047,
        47.1708984375
      ],
      "min": [
        -60.4286003112793,
        97.63310241699219,
        11.714900016784668
      ],
      "type": "VEC3"
    },
    {
      "bufferView": 2,
      "byteOffset": 223356,
      "componentType": 5126,
      "count": 3843,
      "max": [
        0.9998140931129456,
        0.9992448687553406,
        0.9992184638977051
      ],
      "min": [
        -0.9998106360435486,
        -0.9999935626983643,
        -0.9999344348907471
      ],
      "type": "VEC3"
    },
    {
      "bufferView": 3,
      "byteOffset": 109008,
      "componentType": 5126,
      "count": 3843,
      "max": [
        0.9999997615814209,
        0.9994669556617737,
        0.9997179508209229,
        1.0
      ],
      "min": [
        -0.9997621774673462,
        -0.9994980096817017,
        -0.9999951124191284,
        -1.0
      ],
      "type": "VEC4"
    },
    {
      "bufferView": 1,
      "byteOffset": 59080,
      "componentType": 5126,
      "count": 3843,
      "max": [
        0.9970999956130981,
        101120.0
      ],
      "min": [
        -102208.0,
        -0.9926999807357788
      ],
      "type": "VEC2"
    },
    {
      "bufferView": 0,
      "byteOffset": 138372,
      "componentType": 5125,
      "count": 19539,
      "type": "SCALAR"
    },
    {
      "bufferView": 2,
      "byteOffset": 269472,
      "componentType": 5126,
      "count": 1244,
      "max": [
        -20.399700164794922,
        115.631103515625,
        43.18170166015625
      ],
      "min": [
        -45.7765007019043,
        98.8760986328125,
        -21.540300369262695
      ],
      "type": "VEC3"
    },
    {
      "bufferView": 2,
      "byteOffset": 284400,
      "componentType": 5126,
      "count": 1244,
      "max": [
        0.9981182813644409,
        0.9999992847442627,
        0.9973347187042236
      ],
      "min": [
        -0.9984216094017029,
        -0.9999737739562988,
        -0.9995281100273132
      ],
      "type": "VEC3"
    },
    {
      "bufferView": 3,
      "byteOffset": 170496,
      "componentType": 5126,
      "count": 1244,
      "max": [
        0.999998927116394,
        0.9861589670181274,
        0.9976473450660706,
        1.0
      ],
      "min": [
        -0.2182050496339798,
        -0.9940716028213501,
        -0.99763423204422,
        -1.0
      ],
      "type": "VEC4"
    },
    {
      "bufferView": 1,
      "byteOffset": 89824,
      "componentType": 5126,
      "count": 1244,
      "max": [
        0.9907000064849854,
        0.004800000227987766
      ],
      "min": [
        0.002099999925121665,
        -0.9976000189781189
      ],
      "type": "VEC2"
    },
    {
      "bufferView": 0,
      "byteOffset": 216528,
      "componentType": 5125,
      "count": 6840,
      "type": "SCALAR"
    }
  ],
  "asset": {
    "extras": {
      "author": "Nyilonelycompany (https://sketchfab.com/Nyilonelycompany)",
      "license": "CC-BY-4.0 (http://creativecommons.org/licenses/by/4.0/)",
      "source": "https://sketchfab.com/3d-models/thor-8-character-99dcab3bdcc44b75b348622c0a0c383d",
      "title": "Thor 8 character"
    },
    "generator": "Sketchfab-12.68.0",
    "version": "2.0"
  },
  "bufferViews": [
    {
      "buffer": 0,
      "byteLength": 243888,
      "name": "floatBufferViews",
      "target": 34963
    },
    {
      "buffer": 0,
      "byteLength": 99776,
      "byteOffset": 243888,
      "byteStride": 8,
      "name": "floatBufferViews",
      "target": 34962
    },
    {
      "buffer": 0,
      "byteLength": 299328,
      "byteOffset": 343664,
      "byteStride": 12,
      "name": "floatBufferViews",
      "target": 34962
    },
    {
      "buffer": 0,
      "byteLength": 190400,
      "byteOffset": 642992,
      "byteStride": 16,
      "name": "floatBufferViews",
      "target": 34962
    }
  ],
  "buffers": [
    {
      "byteLength": 833392,
      "uri": "scene.bin"
    }
  ],
  "images": [
    {
      "uri": "textures/07___Default_baseColor.png"
    },
    {
      "uri": "textures/ThorHammer_Diff_baseColor.png"
    },
    {
      "uri": "textures/ThorHammer_Diff_normal.png"
    },
    {
      "uri": "textures/eyeball_l_baseColor.png"
    },
    {
      "uri": "textures/eyeball_l_normal.png"
    },
    {
      "uri": "textures/eyeball_r_baseColor.png"
    },
    {
      "uri": "textures/eyeball_r_normal.png"
    }
  ],
  "materials": [
    {
      "doubleSided": true,
      "emissiveTexture": {
        "index": 0
      },
      "name": "07___Default",
      "pbrMetallicRoughness": {
        "baseColorTexture": {
          "index": 0
        },
        "metallicFactor": 0.0
      }
    },
    {
      "doubleSided": true,
      "emissiveTexture": {
        "index": 1
      },
      "name": "ThorHammer_Diff",
      "normalTexture": {
        "index": 2
      },
      "pbrMetallicRoughness": {
        "baseColorTexture": {
          "index": 1
        },
        "metallicFactor": 0.0
      }
    },
    {
      "doubleSided": true,
      "emissiveTexture": {
        "index": 3
      },
      "name": "eyeball_l",
      "normalTexture": {
        "index": 4
      },
      "pbrMetallicRoughness": {
        "baseColorTexture": {
          "index": 3
        },
        "metallicFactor": 0.0
      }
    },
    {
      "doubleSided": true,
      "emissiveTexture": {
        "index": 5
      },
      "name": "eyeball_r",
      "normalTexture": {
        "index": 6
      },
      "pbrMetallicRoughness": {
        "baseColorTexture": {
          "index": 5
        },
        "metallicFactor": 0.0
      }
    }
  ],
  "meshes": [
    {
      "name": "Object_0",
      "primitives": [
        {
          "attributes": {
            "NORMAL": 1,
            "POSITION": 0,
            "TEXCOORD_0": 2
          },
          "indices": 3,
          "material": 0,
          "mode": 4
        }
      ]
    },
    {
      "name": "Object_1",
      "primitives": [
        {
          "attributes": {
            "NORMAL": 5,
            "POSITION": 4,
            "TANGENT": 6,
            "TEXCOORD_0": 7
          },
          "indices": 8,
          "material": 1,
          "mode": 4
        }
      ]
    },
    {
      "name": "Object_2",
      "primitives": [
        {
          "attributes": {
            "NORMAL": 10,
            "POSITION": 9,
            "TANGENT": 11,
            "TEXCOORD_0": 12
          },
          "indices": 13,
          "material": 2,
          "mode": 4
        }
      ]
    },
    {
      "name": "Object_3",
      "primitives": [
        {
          "attributes": {
            "NORMAL": 15,
            "POSITION": 14,
            "TANGENT": 16,
            "TEXCOORD_0": 17
          },
          "indices": 18,
          "material": 3,
          "mode": 4
        }
      ]
    }
  ],
  "nodes": [
    {
      "children": [
        1
      ],
      "matrix": [
        1.0,
        0.0,
        0.0,
        0.0,
        0.0,
        2.220446049250313e-16,
        -1.0,
        0.0,
        0.0,
        1.0,
        2.220446049250313e-16,
        0.0,
        0.0,
        0.0,
        0.0,
        1.0
      ],
      "name": "Sketchfab_model"
    },
    {
      "children": [
        2,
        3,
        4,
        5
      ],
      "name": "8.obj.cleaner.materialmerger.gles"
    },
    {
      "mesh": 0,
      "name": "Object_2"
    },
    {
      "mesh": 1,
      "name": "Object_3"
    },
    {
      "mesh": 2,
      "name": "Object_4"
    },
    {
      "mesh": 3,
      "name": "Object_5"
    }
  ],
  "samplers": [
    {
      "magFilter": 9729,
      "minFilter": 9987,
      "wrapS": 10497,
      "wrapT": 10497
    }
  ],
  "scene": 0,
  "scenes": [
    {
      "name": "Sketchfab_Scene",
      "nodes": [
        0
      ]
    }
  ],
  "textures": [
    {
      "sampler": 0,
      "source": 0
    },
    {
      "sampler": 0,
      "source": 1
    },
    {
      "sampler": 0,
      "source": 2
    },
    {
      "sampler": 0,
      "source": 3
    },
    {
      "sampler": 0,
      "source": 4
    },
    {
      "sampler": 0,
      "source": 5
    },
    {
      "sampler": 0,
      "source": 6
    }
  ]
}
